<svg xmlns="http://www.w3.org/2000/svg" viewBox="0 0 600 400" role="img" aria-label="Mezclas podcast">
  <defs>
    <linearGradient id="bg2" x1="0" y1="0" x2="0" y2="1">
      <stop offset="0" stop-color="#0E1410"/>
      <stop offset="1" stop-color="#161C18"/>
    </linearGradient>
    <radialGradient id="glow2" cx="0.5" cy="0.5">
      <stop offset="0" stop-color="#22C55E" stop-opacity="0.25"/>
      <stop offset="1" stop-color="#22C55E" stop-opacity="0"/>
    </radialGradient>
    <pattern id="dots2" x="0" y="0" width="30" height="30" patternUnits="userSpaceOnUse">
      <circle cx="15" cy="15" r="1" fill="rgba(255,255,255,0.04)"/>
    </pattern>
  </defs>
  <rect width="600" height="400" fill="url(#bg2)"/>
  <rect width="600" height="400" fill="url(#dots2)"/>
  <rect width="600" height="400" fill="url(#glow2)"/>
  <!-- Badge episodio -->
  <g transform="translate(28, 28)">
    <rect x="0" y="0" width="76" height="24" rx="2" fill="#22C55E" opacity="0.15"/>
    <text x="38" y="16" text-anchor="middle" fill="#22C55E" font-family="Inter, sans-serif" font-size="10" font-weight="700" letter-spacing="2">EP 02</text>
  </g>
  <!-- Decoration bottom -->
  <g transform="translate(28, 360)">
    <line x1="0" y1="0" x2="40" y2="0" stroke="#22C55E" stroke-width="2" opacity="0.6"/>
  </g>
  
  <g transform="translate(300, 200)">
    <text x="0" y="-130" text-anchor="middle" fill="white" font-family="Playfair Display, serif" font-size="28" font-weight="800">Mezclas y Métodos de Separación</text>

    <!-- Frasco homogéneo -->
    <g transform="translate(-100, 0)">
      <rect x="-44" y="-70" width="88" height="140" fill="rgba(34,197,94,0.08)" stroke="#22C55E" stroke-width="2" rx="3"/>
      <rect x="-40" y="10" width="80" height="56" fill="#22C55E" opacity="0.45"/>
      <text x="0" y="100" text-anchor="middle" fill="#A8B5AD" font-family="Inter, sans-serif" font-size="10" font-weight="600" letter-spacing="1">HOMOGÉNEA</text>
    </g>
    <!-- Frasco heterogéneo -->
    <g transform="translate(100, 0)">
      <rect x="-44" y="-70" width="88" height="140" fill="rgba(34,197,94,0.08)" stroke="#22C55E" stroke-width="2" rx="3"/>
      <rect x="-40" y="0" width="80" height="20" fill="#A8B5AD" opacity="0.6"/>
      <rect x="-40" y="20" width="80" height="46" fill="#22C55E" opacity="0.5"/>
      <circle cx="-15" cy="35" r="6" fill="#A8B5AD" opacity="0.7"/>
      <circle cx="10" cy="50" r="4" fill="#A8B5AD" opacity="0.6"/>
      <text x="0" y="100" text-anchor="middle" fill="#A8B5AD" font-family="Inter, sans-serif" font-size="10" font-weight="600" letter-spacing="1">HETEROGÉNEA</text>
    </g>
  </g>
</svg>